<svg width="16" height="16" viewBox="0 0 16 16" fill="none" xmlns="http://www.w3.org/2000/svg">
<path d="M14.328 12.7007L11.2159 12.3255C11.1926 12.3226 11.1707 12.3133 11.1525 12.2985C11.1343 12.2838 11.1206 12.2643 11.1129 12.2421C11.1052 12.22 11.1039 12.1962 11.1091 12.1734C11.1143 12.1505 11.1258 12.1296 11.1423 12.113L12.069 11.1864L8.53779 7.65523L6.94707 9.24419C6.9239 9.26741 6.89638 9.28583 6.86608 9.29839C6.83579 9.31096 6.80331 9.31743 6.77051 9.31743C6.73771 9.31743 6.70523 9.31096 6.67493 9.29839C6.64464 9.28583 6.61712 9.26741 6.59395 9.24419L1.56723 4.21619C1.54398 4.19271 1.53094 4.161 1.53094 4.12795C1.53094 4.09491 1.54398 4.0632 1.56723 4.03971L2.27027 3.33347C2.31875 3.28499 2.39843 3.28499 2.44691 3.33347L6.77027 7.65539L8.35939 6.06627C8.40637 6.01973 8.46982 5.99363 8.53595 5.99363C8.60208 5.99363 8.66553 6.01973 8.71251 6.06627L12.9531 10.3037L13.8797 9.37731C13.8963 9.36085 13.9172 9.34936 13.94 9.34416C13.9628 9.33895 13.9866 9.34023 14.0087 9.34786C14.0309 9.35549 14.0504 9.36915 14.0651 9.38731C14.0799 9.40546 14.0893 9.42739 14.0922 9.45059L14.4672 12.5631C14.4697 12.5819 14.4678 12.601 14.4616 12.6189C14.4555 12.6368 14.4453 12.6531 14.4318 12.6664C14.4183 12.6797 14.4019 12.6898 14.3839 12.6957C14.3659 12.7017 14.3468 12.7033 14.328 12.7007Z" fill="#F98D86"/>
</svg>
