<svg width="16" height="16" viewBox="0 0 16 16" fill="none" xmlns="http://www.w3.org/2000/svg">
<path fill-rule="evenodd" clip-rule="evenodd" d="M7.58358 1.47946C7.82706 1.28468 8.17303 1.28468 8.4165 1.47946L13.4165 5.47946C13.5746 5.60598 13.6667 5.79752 13.6667 6.00004V14C13.6667 14.3682 13.3682 14.6667 13 14.6667H3.00004C2.63185 14.6667 2.33337 14.3682 2.33337 14V6.00004C2.33337 5.79752 2.42543 5.60598 2.58358 5.47946L7.58358 1.47946ZM3.66671 6.32046V13.3334H12.3334V6.32046L8.00004 2.85379L3.66671 6.32046Z" fill="#737377"/>
<path fill-rule="evenodd" clip-rule="evenodd" d="M5.66663 9.66667C5.66663 9.29848 5.9651 9 6.33329 9H9.66663C10.0348 9 10.3333 9.29848 10.3333 9.66667V14C10.3333 14.3682 10.0348 14.6667 9.66663 14.6667H6.33329C5.9651 14.6667 5.66663 14.3682 5.66663 14V9.66667ZM6.99996 10.3333V13.3333H8.99996V10.3333H6.99996Z" fill="#737377"/>
<path fill-rule="evenodd" clip-rule="evenodd" d="M2.33337 14C2.33337 13.6319 2.63185 13.3334 3.00004 13.3334H13C13.3682 13.3334 13.6667 13.6319 13.6667 14C13.6667 14.3682 13.3682 14.6667 13 14.6667H3.00004C2.63185 14.6667 2.33337 14.3682 2.33337 14Z" fill="#737377"/>
</svg>
