<svg width="16" height="16" viewBox="0 0 16 16" fill="none" xmlns="http://www.w3.org/2000/svg">
<g clip-path="url(#clip0_984_1384)">
<path d="M8.00009 0C3.58168 0 0 3.58168 0 8.00009C0 12.4185 3.58168 16 8.00009 16C12.4185 16 16 12.4183 16 8.00009C16 3.58185 12.4183 0 8.00009 0ZM14.9266 8.00009C14.9276 8.6636 14.8331 9.3238 14.6459 9.96035H11.9235C12.0065 9.31024 12.0479 8.65548 12.0473 8.00009C12.0478 7.34174 12.006 6.68404 11.922 6.03106H14.6434C14.8322 6.67031 14.9276 7.33352 14.9266 8.00009ZM8.88889 14.511C8.58779 14.7614 8.28884 14.8883 8.00009 14.8883C7.71134 14.8883 7.41221 14.7613 7.11129 14.511C6.7474 14.2081 6.39567 13.7352 6.09511 13.1434C5.78614 12.5351 5.53764 11.8263 5.35588 11.0338H10.6448C10.4631 11.8263 10.2155 12.5353 9.90561 13.1434C9.60415 13.7352 9.25278 14.2081 8.88889 14.511ZM5.15944 9.96035C4.98137 8.65662 4.98173 7.3347 5.16051 6.03106H10.8395C10.9299 6.6835 10.9747 7.34143 10.9738 8.00009C10.9747 8.6558 10.9302 9.31079 10.8406 9.96035H5.15944ZM1.35413 9.96035C0.978955 8.67732 0.979886 7.31358 1.35681 6.03106H4.0776C3.91146 7.33553 3.9111 8.65579 4.07653 9.96035H1.35413ZM7.11129 1.4892C7.41221 1.23874 7.71116 1.11171 8.00009 1.11171C8.28902 1.11171 8.58779 1.23874 8.88889 1.4892C9.25278 1.79191 9.60451 2.26476 9.90489 2.85675C10.2128 3.46235 10.4606 4.16848 10.6422 4.95763H5.35802C5.53961 4.16848 5.78739 3.46235 6.09511 2.85675C6.39603 2.26476 6.7474 1.79191 7.11129 1.4892ZM12.8978 3.10221C13.4398 3.64282 13.8882 4.26986 14.2244 4.95763H11.7412C11.4437 3.54428 10.9452 2.33507 10.3157 1.46899C10.4436 1.51538 10.5704 1.56482 10.6958 1.6173C11.519 1.96507 12.2668 2.46937 12.8978 3.10221ZM3.10221 3.10221C3.73319 2.46941 4.48101 1.96511 5.30417 1.6173C5.42976 1.56423 5.55649 1.51503 5.68434 1.4697C5.05478 2.33507 4.55635 3.54375 4.25883 4.95835H1.77563C2.11184 4.27036 2.56015 3.64308 3.10221 3.10221ZM3.10221 12.8978C2.5578 12.3549 2.10793 11.7249 1.77116 11.0338H4.25794C4.55528 12.4514 5.05442 13.6637 5.68524 14.5303C5.55726 14.4851 5.43054 14.4359 5.30507 14.3827C4.48158 14.035 3.73345 13.5307 3.10221 12.8978ZM12.8978 12.8978C12.2668 13.5306 11.519 14.0349 10.6958 14.3827C10.5702 14.4359 10.4435 14.4851 10.3157 14.5303C10.9465 13.6631 11.4458 12.4514 11.743 11.0338H14.2287C13.8919 11.7249 13.4421 12.3549 12.8978 12.8978Z" fill="white"/>
</g>
<defs>
<clipPath id="clip0_984_1384">
<rect width="16" height="16" fill="white"/>
</clipPath>
</defs>
</svg>
