<svg width="16" height="16" viewBox="0 0 16 16" fill="none" xmlns="http://www.w3.org/2000/svg">
<path d="M14.328 3.29835L11.2158 3.67355C11.1926 3.67643 11.1706 3.68577 11.1524 3.70049C11.1342 3.71522 11.1205 3.73475 11.1128 3.75687C11.1052 3.779 11.1039 3.80282 11.1091 3.82565C11.1143 3.84848 11.1257 3.8694 11.1422 3.88603L12.0689 4.81259L8.53773 8.34379L6.94701 6.75483C6.92384 6.73162 6.89632 6.7132 6.86602 6.70063C6.83572 6.68806 6.80325 6.68159 6.77045 6.68159C6.73765 6.68159 6.70517 6.68806 6.67487 6.70063C6.64458 6.7132 6.61706 6.73162 6.59389 6.75483L1.56717 11.7828C1.54392 11.8063 1.53088 11.838 1.53088 11.8711C1.53088 11.9041 1.54392 11.9358 1.56717 11.9593L2.27021 12.6656C2.31869 12.714 2.39837 12.714 2.44685 12.6656L6.77021 8.34363L8.35933 9.93275C8.40631 9.97929 8.46976 10.0054 8.53589 10.0054C8.60201 10.0054 8.66547 9.97929 8.71245 9.93275L12.9531 5.69531L13.8796 6.62171C13.8963 6.63818 13.9172 6.64966 13.94 6.65487C13.9628 6.66007 13.9866 6.65879 14.0087 6.65116C14.0308 6.64354 14.0503 6.62987 14.0651 6.61172C14.0798 6.59356 14.0892 6.57164 14.0921 6.54843L14.4672 3.43595C14.4696 3.41716 14.4677 3.39805 14.4616 3.38012C14.4554 3.3622 14.4452 3.34593 14.4317 3.33261C14.4182 3.31928 14.4019 3.30926 14.3839 3.30332C14.3659 3.29737 14.3467 3.29567 14.328 3.29835Z" fill="#50D266"/>
</svg>
