<?xml version="1.0" standalone="no"?><!DOCTYPE svg PUBLIC "-//W3C//DTD SVG 1.1//EN" "http://www.w3.org/Graphics/SVG/1.1/DTD/svg11.dtd"><svg t="1619594122968" class="icon" viewBox="0 0 1024 1024" version="1.1" xmlns="http://www.w3.org/2000/svg" p-id="8235" xmlns:xlink="http://www.w3.org/1999/xlink" width="200" height="200"><defs><style type="text/css"></style></defs><path d="M792.242124 366.293477c91.527576-5.714142 104.014982-12.997012 158.082388 38.48143 85.813434-40.559764 34.325783-186.16498-62.398142-155.485237 4.675486-68.059072-124.546597-187.983395-219.174791-33.706683C671.798984 216.621643 791.220864 257.969353 792.242124 366.293477z" p-id="8236" fill="#1296db"></path><path d="M668.484496 215.484749l0 0.528026c0.089028-0.151449 0.196475-0.277316 0.26913-0.429789C668.716786 215.5748 668.484496 215.484749 668.484496 215.484749z" p-id="8237" fill="#1296db"></path><path d="M587.883783 537.903973c-23.396873 0-42.117237 8.321526-56.163137 24.426319-13.526061 16.124236-20.799722 38.48143-20.799722 66.573231l0.51984 0c0 27.554566 6.754844 48.873104 20.799722 64.494896 14.045901 15.585977 32.246425 23.898293 55.643298 23.898293 23.916712 0 42.638099-7.774057 55.124482-22.858614 12.470009-15.623839 18.72241-37.442774 18.72241-66.574255 0-29.129434-6.252401-50.950416-18.72241-66.572208C630.521882 545.69645 611.800495 537.903973 587.883783 537.903973z" p-id="8238" fill="#1296db"></path><path d="M839.574129 424.535973l-103.496166-3.63683c-37.962613-281.331433-429.013961-329.692884-512.210801 46.793746l-40.560788 2.087545C-29.900495 573.258179 53.815161 803.647383 150.02027 837.43593l0 0.50142c231.40944 0 462.818881 0 694.229345 0C1009.086847 794.796808 1044.972149 512.938372 839.574129 424.535973zM402.230456 556.10552c-16.644075-12.487406-35.364439-18.721387-56.164161-18.721387-23.917736 0-43.676755 8.312316-58.761312 24.946159-15.08558 16.661472-22.878057 39.019689-22.878057 66.573231 0 27.554566 7.291057 48.873104 21.318538 64.494896 14.564717 15.585977 33.287127 23.39585 57.723679 23.39585 20.278859 0 40.039925-6.771217 58.241472-20.278859l0 38.48143 0 1.039679c-18.201547 10.92891-40.039925 16.123212-66.034972 16.123212-34.323737 0-61.879326-10.92891-82.695421-33.285081-20.782326-21.856797-31.190373-50.448996-31.190373-85.813434 0-38.983873 11.447726-70.192665 33.805944-94.117564 22.358217-23.925922 53.028751-35.884278 90.471524-35.884278 21.838378 0 40.559764 3.63683 56.164161 11.438517L402.231479 556.10552zM672.121326 717.833949c-21.839401 22.859637-50.448996 34.827203-86.834694 34.827203-35.365462 0-63.975057-10.92891-85.294618-33.285081-21.319561-22.35924-31.709189-51.991118-31.709189-88.393189l0-0.50142c0-39.523155 10.910491-70.228481 32.747845-93.097328 21.838378-22.887266 51.487651-33.805944 89.450265-33.805944 35.883255 0 63.436798 10.918677 83.717703 32.767288 20.278859 21.838378 30.68793 51.998281 30.68793 90.480734C704.88759 664.267962 693.95868 694.939519 672.121326 717.833949zM845.80811 730.84017l0 15.587-83.71668 0 0-15.08558 40.039925-40.021505c10.910491-10.92891 18.720364-19.777439 22.35924-26.550703 3.63683-6.233981 5.714142-12.970406 5.714142-20.277836 0-7.776104-2.077312-14.009062-6.754844-18.202571-4.15667-4.15667-10.927887-6.233981-19.241226-6.233981-12.486382 0-23.916712 5.194302-35.364439 15.621792l0-17.700127c10.92891-8.312316 23.396873-12.468986 37.962613-12.468986 12.486382 0 22.358217 3.116991 29.631878 9.888208 7.291057 6.736425 10.927887 15.587 10.927887 27.016307 0 8.848529-2.078335 17.161868-6.753821 25.512047-4.676509 8.311293-13.526061 18.701944-26.532283 31.708166l-31.710212 30.670533 0 0.537236L845.80811 730.84017z" p-id="8239" fill="#1296db"></path></svg>