<?xml version="1.0" standalone="no"?><!DOCTYPE svg PUBLIC "-//W3C//DTD SVG 1.1//EN" "http://www.w3.org/Graphics/SVG/1.1/DTD/svg11.dtd"><svg t="1626173838375" class="icon" viewBox="0 0 1034 1024" version="1.1" xmlns="http://www.w3.org/2000/svg" p-id="3101" xmlns:xlink="http://www.w3.org/1999/xlink" width="201.953125" height="200"><defs><style type="text/css"></style></defs><path d="M941.8 729L590.4 119.7c-14.8-43.2-61.7-66.2-104.9-51.4-24.2 8.3-43.1 27.2-51.4 51.4L82.8 729c-43.2 74.3-8.3 134.7 78.1 134.7h702.7c86.4 0 121.4-60.3 78.2-134.7zM464 292.6c25.9-26.7 68.6-27.3 95.2-1.3 0.5 0.4 0.9 0.9 1.3 1.3 12.8 13.8 19.7 32 19.1 50.8 0 17.2-26.7 145.5-34.9 238.9h-63.5c-7.6-93.4-36.2-221.7-36.2-238.9-0.5-18.8 6.3-37 19-50.8z m95.9 444.7c-26.7 25.3-68.6 25.3-95.3 0-26.3-26.3-26.3-69 0.1-95.2 26.3-26.3 69-26.3 95.2 0.1 26.3 26.2 26.3 68.8 0 95.1z" p-id="3102" fill="#EC3200"></path></svg>