<svg width="97" height="96" viewBox="0 0 97 96" fill="none" xmlns="http://www.w3.org/2000/svg">
<path d="M48.5 6C60.376 6.312 70.267 10.421 78.173 18.327C86.079 26.233 90.188 36.124 90.5 48C90.188 59.876 86.079 69.767 78.173 77.673C70.267 85.579 60.376 89.688 48.5 90C36.624 89.688 26.733 85.579 18.827 77.673C10.921 69.767 6.812 59.876 6.5 48C6.812 36.124 10.921 26.233 18.827 18.327C26.733 10.421 36.624 6.312 48.5 6ZM48.5 42.939L38.75 33.189C38 32.439 37.141 32.064 36.173 32.064C35.205 32.064 34.361 32.423 33.641 33.141C32.921 33.859 32.562 34.703 32.564 35.673C32.566 36.643 32.941 37.502 33.689 38.25L43.439 48L33.689 57.75C32.939 58.5 32.564 59.359 32.564 60.327C32.564 61.295 32.923 62.139 33.641 62.859C34.359 63.579 35.203 63.938 36.173 63.936C37.143 63.934 38.002 63.559 38.75 62.811L48.5 53.061L58.25 62.811C59.25 63.749 60.406 64.046 61.718 63.702C63.03 63.358 63.858 62.53 64.202 61.218C64.546 59.906 64.249 58.75 63.311 57.75L53.561 48L63.311 38.25C64.061 37.5 64.436 36.641 64.436 35.673C64.436 34.705 64.077 33.861 63.359 33.141C62.641 32.421 61.797 32.062 60.827 32.064C59.857 32.066 58.998 32.441 58.25 33.189L48.5 42.939Z" fill="white"/>
</svg>
