<svg width="24" height="24" viewBox="0 0 24 24" fill="none" xmlns="http://www.w3.org/2000/svg">
<path fill-rule="evenodd" clip-rule="evenodd" d="M2 12C2 10.8954 2.89543 10 4 10H20C21.1046 10 22 10.8954 22 12V21C22 22.1046 21.1046 23 20 23H4C2.89543 23 2 22.1046 2 21V12ZM20 12H4V21H20V12Z" fill="white"/>
<path fill-rule="evenodd" clip-rule="evenodd" d="M12 3C9.79088 3 8 4.79086 8 7V11C8 11.5523 7.55228 12 7 12C6.44772 12 6 11.5523 6 11V7C6 3.68629 8.68632 1 12 1C15.3137 1 18 3.68629 18 7V11C18 11.5523 17.5523 12 17 12C16.4477 12 16 11.5523 16 11V7C16 4.79086 14.2091 3 12 3Z" fill="white"/>
</svg>
