<svg width="24" height="24" viewBox="0 0 24 24" fill="none" xmlns="http://www.w3.org/2000/svg">
<path fill-rule="evenodd" clip-rule="evenodd" d="M12 3C10.3431 3 9 4.34315 9 6C9 7.65685 10.3431 9 12 9C13.6569 9 15 7.65685 15 6C15 4.34315 13.6569 3 12 3ZM7 6C7 3.23858 9.23858 1 12 1C14.7614 1 17 3.23858 17 6C17 8.76142 14.7614 11 12 11C9.23858 11 7 8.76142 7 6Z" fill="white"/>
<path fill-rule="evenodd" clip-rule="evenodd" d="M2 22C2 16.4772 6.47716 12 12 12C17.5228 12 22 16.4772 22 22C22 22.5523 21.5523 23 21 23C20.4477 23 20 22.5523 20 22C20 17.5817 16.4183 14 12 14C7.58173 14 4 17.5817 4 22C4 22.5523 3.55228 23 3 23C2.44772 23 2 22.5523 2 22Z" fill="white"/>
</svg>
