<svg width="74" height="74" viewBox="0 0 74 74" fill="none" xmlns="http://www.w3.org/2000/svg">
<g clip-path="url(#clip0_1286_21088)">
<path fill-rule="evenodd" clip-rule="evenodd" d="M46.1368 58.1136C48.7246 56.9946 51.1487 55.3778 53.2635 53.263L62.4558 62.4554C59.2475 65.6638 55.4615 68.2367 51.2973 70.0387L46.1368 58.1136ZM46.1368 58.1136C37.7334 61.7472 27.6039 60.1303 20.7365 53.263C11.7545 44.281 11.7545 29.7182 20.7365 20.7361C29.7186 11.7541 44.2814 11.7541 53.2635 20.7361C62.2455 29.7182 62.2455 44.281 53.2635 53.263L37 36.9996L46.1368 58.1136ZM20.7365 53.263C29.7186 62.2451 44.2814 62.2451 53.2635 53.263C62.2455 44.281 62.2455 29.7182 53.2635 20.7361C44.2814 11.7541 29.7186 11.7541 20.7365 20.7361C13.8692 27.6034 12.2524 37.733 15.886 46.1364L3.96083 51.2969C5.76283 55.4611 8.33578 59.247 11.5442 62.4554L20.7365 53.263ZM20.7365 53.263L37 36.9996L15.886 46.1364C17.005 48.7242 18.6218 51.1483 20.7365 53.263ZM20.7365 53.263C29.7186 62.2451 44.2814 62.2451 53.2635 53.263C62.2455 44.281 62.2455 29.7182 53.2635 20.7361C46.3961 13.8688 36.2666 12.252 27.8632 15.8856L22.7027 3.96041C18.5385 5.7624 14.7525 8.33535 11.5442 11.5437L20.7365 20.7361C11.7545 29.7182 11.7545 44.281 20.7365 53.263ZM20.7365 20.7361L37 36.9996L27.8632 15.8856C25.2754 17.0045 22.8513 18.6214 20.7365 20.7361ZM70.0392 22.7023C68.2372 18.5381 65.6642 14.7521 62.4558 11.5437L53.2635 20.7361C44.2814 11.7541 29.7186 11.7541 20.7365 20.7361C11.7545 29.7182 11.7545 44.281 20.7365 53.263C29.7186 62.2451 44.2814 62.2451 53.2635 53.263C60.1308 46.3957 61.7476 36.2662 58.114 27.8627L70.0392 22.7023ZM58.114 27.8627C56.995 25.275 55.3782 22.8509 53.2635 20.7361L37 36.9996L58.114 27.8627ZM58.3906 45.4691C59.4292 42.8481 60 39.9907 60 37H73C73 41.5373 72.1423 46.0338 70.472 50.2525L58.3906 45.4691ZM58.3906 45.4691C55.0178 53.9806 46.7119 60 37 60C24.2975 60 14 49.7025 14 37C14 24.2975 24.2975 14 37 14C49.7025 14 60 24.2975 60 37H37L58.3906 45.4691ZM37 60C49.7025 60 60 49.7025 60 37C60 24.2975 49.7025 14 37 14C24.2975 14 14 24.2975 14 37C14 46.7119 20.0194 55.0178 28.5309 58.3906L23.7475 70.472C27.9662 72.1423 32.4627 73 37 73V60ZM37 60V37L28.5309 58.3906C31.1519 59.4292 34.0093 60 37 60ZM37 60C49.7025 60 60 49.7025 60 37C60 24.2975 49.7025 14 37 14C27.2881 14 18.9822 20.0194 15.6094 28.5309L3.52804 23.7475C1.85774 27.9662 1 32.4627 1 37L14 37C14 49.7025 24.2975 60 37 60ZM14 37H37L15.6094 28.5309C14.5708 31.1519 14 34.0093 14 37ZM50.2525 3.52805C46.0338 1.85774 41.5373 1 37 1V14C24.2975 14 14 24.2975 14 37C14 49.7025 24.2975 60 37 60C49.7025 60 60 49.7025 60 37C60 27.2881 53.9806 18.9822 45.4691 15.6094L50.2525 3.52805ZM45.4691 15.6094C42.8481 14.5708 39.9907 14 37 14V37L45.4691 15.6094Z" fill="white"/>
<rect x="1" y="1" width="72" height="72" rx="36" fill="#66DFD7"/>
<path fill-rule="evenodd" clip-rule="evenodd" d="M46.1368 58.1136C48.7246 56.9946 51.1487 55.3778 53.2635 53.263L62.4558 62.4554C59.2475 65.6638 55.4615 68.2367 51.2973 70.0387L46.1368 58.1136ZM46.1368 58.1136C37.7334 61.7472 27.6039 60.1303 20.7365 53.263C11.7545 44.281 11.7545 29.7182 20.7365 20.7361C29.7186 11.7541 44.2814 11.7541 53.2635 20.7361C62.2455 29.7182 62.2455 44.281 53.2635 53.263L37 36.9996L46.1368 58.1136Z" fill="white"/>
<path fill-rule="evenodd" clip-rule="evenodd" d="M20.7365 53.263C29.7186 62.2451 44.2814 62.2451 53.2635 53.263C62.2455 44.281 62.2455 29.7182 53.2635 20.7361C44.2814 11.7541 29.7186 11.7541 20.7365 20.7361C13.8692 27.6034 12.2524 37.733 15.886 46.1364L3.96083 51.2969C5.76283 55.4611 8.33578 59.247 11.5442 62.4554L20.7365 53.263ZM20.7365 53.263L37 36.9996L15.886 46.1364C17.005 48.7242 18.6218 51.1483 20.7365 53.263Z" fill="white"/>
<path fill-rule="evenodd" clip-rule="evenodd" d="M20.7365 53.263C29.7186 62.2451 44.2814 62.2451 53.2635 53.263C62.2455 44.281 62.2455 29.7182 53.2635 20.7361C46.3961 13.8688 36.2666 12.252 27.8632 15.8856L22.7027 3.96041C18.5385 5.7624 14.7525 8.33535 11.5442 11.5437L20.7365 20.7361C11.7545 29.7182 11.7545 44.281 20.7365 53.263ZM20.7365 20.7361L37 36.9996L27.8632 15.8856C25.2754 17.0045 22.8513 18.6214 20.7365 20.7361Z" fill="white"/>
<path fill-rule="evenodd" clip-rule="evenodd" d="M70.0392 22.7023C68.2372 18.5381 65.6642 14.7521 62.4558 11.5437L53.2635 20.7361C44.2814 11.7541 29.7186 11.7541 20.7365 20.7361C11.7545 29.7182 11.7545 44.281 20.7365 53.263C29.7186 62.2451 44.2814 62.2451 53.2635 53.263C60.1308 46.3957 61.7476 36.2662 58.114 27.8627L70.0392 22.7023ZM58.114 27.8627C56.995 25.275 55.3782 22.8509 53.2635 20.7361L37 36.9996L58.114 27.8627Z" fill="white"/>
<path fill-rule="evenodd" clip-rule="evenodd" d="M58.3906 45.4691C59.4292 42.8481 60 39.9907 60 37H73C73 41.5373 72.1423 46.0338 70.472 50.2525L58.3906 45.4691ZM58.3906 45.4691C55.0178 53.9806 46.7119 60 37 60C24.2975 60 14 49.7025 14 37C14 24.2975 24.2975 14 37 14C49.7025 14 60 24.2975 60 37H37L58.3906 45.4691Z" fill="white"/>
<path fill-rule="evenodd" clip-rule="evenodd" d="M37 60C49.7025 60 60 49.7025 60 37C60 24.2975 49.7025 14 37 14C24.2975 14 14 24.2975 14 37C14 46.7119 20.0194 55.0178 28.5309 58.3906L23.7475 70.472C27.9662 72.1423 32.4627 73 37 73L37 60ZM37 60V37L28.5309 58.3906C31.1519 59.4292 34.0093 60 37 60Z" fill="white"/>
<path fill-rule="evenodd" clip-rule="evenodd" d="M37 60C49.7025 60 60 49.7025 60 37C60 24.2975 49.7025 14 37 14C27.2881 14 18.9822 20.0194 15.6094 28.5309L3.52804 23.7475C1.85774 27.9662 1 32.4627 1 37L14 37C14 49.7025 24.2975 60 37 60ZM14 37H37L15.6094 28.5309C14.5708 31.1519 14 34.0093 14 37Z" fill="white"/>
<path fill-rule="evenodd" clip-rule="evenodd" d="M50.2525 3.52805C46.0338 1.85774 41.5373 1 37 1V14C24.2975 14 14 24.2975 14 37C14 49.7025 24.2975 60 37 60C49.7025 60 60 49.7025 60 37C60 27.2881 53.9806 18.9822 45.4691 15.6094L50.2525 3.52805ZM45.4691 15.6094C42.8481 14.5708 39.9907 14 37 14V37L45.4691 15.6094Z" fill="white"/>
<rect x="12" y="12" width="50" height="50" rx="25" fill="url(#paint0_radial_1286_21088)" stroke="#11838B" stroke-width="2"/>
<g filter="url(#filter0_d_1286_21088)">
<path d="M37.9141 34.48C38.7541 34.48 39.5208 34.68 40.2141 35.08C40.9075 35.4667 41.4541 36.0267 41.8541 36.76C42.2541 37.48 42.4541 38.3133 42.4541 39.26C42.4541 40.2867 42.2275 41.18 41.7741 41.94C41.3341 42.6867 40.7275 43.26 39.9541 43.66C39.1808 44.0467 38.3275 44.24 37.3941 44.24C36.2875 44.24 35.3275 43.9867 34.5141 43.48C33.7141 42.9733 33.1475 42.2067 32.8141 41.18L35.1541 39.84C35.3275 40.44 35.6075 40.8933 35.9941 41.2C36.3808 41.5067 36.8341 41.66 37.3541 41.66C38.0075 41.66 38.5075 41.4467 38.8541 41.02C39.2141 40.58 39.3941 40.0267 39.3941 39.36C39.3941 38.6933 39.2075 38.14 38.8341 37.7C38.4741 37.2467 37.9541 37.02 37.2741 37.02C36.3941 37.02 35.6941 37.4533 35.1741 38.32L33.0941 37.3L34.0941 29.34H41.7741V31.82H36.5341L36.1341 34.84C36.7075 34.6 37.3008 34.48 37.9141 34.48Z" fill="white"/>
</g>
</g>
<defs>
<filter id="filter0_d_1286_21088" x="32.8141" y="29.3398" width="9.64001" height="15.9004" filterUnits="userSpaceOnUse" color-interpolation-filters="sRGB">
<feFlood flood-opacity="0" result="BackgroundImageFix"/>
<feColorMatrix in="SourceAlpha" type="matrix" values="0 0 0 0 0 0 0 0 0 0 0 0 0 0 0 0 0 0 127 0" result="hardAlpha"/>
<feOffset dy="1"/>
<feComposite in2="hardAlpha" operator="out"/>
<feColorMatrix type="matrix" values="0 0 0 0 0 0 0 0 0 0 0 0 0 0 0 0 0 0 1 0"/>
<feBlend mode="normal" in2="BackgroundImageFix" result="effect1_dropShadow_1286_21088"/>
<feBlend mode="normal" in="SourceGraphic" in2="effect1_dropShadow_1286_21088" result="shape"/>
</filter>
<radialGradient id="paint0_radial_1286_21088" cx="0" cy="0" r="1" gradientUnits="userSpaceOnUse" gradientTransform="translate(37 37) rotate(90) scale(24)">
<stop stop-color="#3FD4CF"/>
<stop offset="1" stop-color="#216E6B"/>
</radialGradient>
<clipPath id="clip0_1286_21088">
<rect width="74" height="74" fill="white"/>
</clipPath>
</defs>
</svg>
