<svg width="74" height="74" viewBox="0 0 74 74" fill="none" xmlns="http://www.w3.org/2000/svg">
<g clip-path="url(#clip0_1286_21149)">
<path fill-rule="evenodd" clip-rule="evenodd" d="M46.1368 58.1136C48.7246 56.9946 51.1487 55.3778 53.2635 53.263L62.4558 62.4554C59.2475 65.6638 55.4615 68.2367 51.2973 70.0387L46.1368 58.1136ZM46.1368 58.1136C37.7334 61.7472 27.6039 60.1303 20.7365 53.263C11.7545 44.281 11.7545 29.7182 20.7365 20.7361C29.7186 11.7541 44.2814 11.7541 53.2635 20.7361C62.2455 29.7182 62.2455 44.281 53.2635 53.263L37 36.9996L46.1368 58.1136ZM20.7365 53.263C29.7186 62.2451 44.2814 62.2451 53.2635 53.263C62.2455 44.281 62.2455 29.7182 53.2635 20.7361C44.2814 11.7541 29.7186 11.7541 20.7365 20.7361C13.8692 27.6034 12.2524 37.733 15.886 46.1364L3.96083 51.2969C5.76283 55.4611 8.33578 59.247 11.5442 62.4554L20.7365 53.263ZM20.7365 53.263L37 36.9996L15.886 46.1364C17.005 48.7242 18.6218 51.1483 20.7365 53.263ZM20.7365 53.263C29.7186 62.2451 44.2814 62.2451 53.2635 53.263C62.2455 44.281 62.2455 29.7182 53.2635 20.7361C46.3961 13.8688 36.2666 12.252 27.8632 15.8856L22.7027 3.96041C18.5385 5.7624 14.7525 8.33535 11.5442 11.5437L20.7365 20.7361C11.7545 29.7182 11.7545 44.281 20.7365 53.263ZM20.7365 20.7361L37 36.9996L27.8632 15.8856C25.2754 17.0045 22.8513 18.6214 20.7365 20.7361ZM70.0392 22.7023C68.2372 18.5381 65.6642 14.7521 62.4558 11.5437L53.2635 20.7361C44.2814 11.7541 29.7186 11.7541 20.7365 20.7361C11.7545 29.7182 11.7545 44.281 20.7365 53.263C29.7186 62.2451 44.2814 62.2451 53.2635 53.263C60.1308 46.3957 61.7476 36.2662 58.114 27.8627L70.0392 22.7023ZM58.114 27.8627C56.995 25.275 55.3782 22.8509 53.2635 20.7361L37 36.9996L58.114 27.8627ZM58.3906 45.4691C59.4292 42.8481 60 39.9907 60 37H73C73 41.5373 72.1423 46.0338 70.472 50.2525L58.3906 45.4691ZM58.3906 45.4691C55.0178 53.9806 46.7119 60 37 60C24.2975 60 14 49.7025 14 37C14 24.2975 24.2975 14 37 14C49.7025 14 60 24.2975 60 37H37L58.3906 45.4691ZM37 60C49.7025 60 60 49.7025 60 37C60 24.2975 49.7025 14 37 14C24.2975 14 14 24.2975 14 37C14 46.7119 20.0194 55.0178 28.5309 58.3906L23.7475 70.472C27.9662 72.1423 32.4627 73 37 73V60ZM37 60V37L28.5309 58.3906C31.1519 59.4292 34.0093 60 37 60ZM37 60C49.7025 60 60 49.7025 60 37C60 24.2975 49.7025 14 37 14C27.2881 14 18.9822 20.0194 15.6094 28.5309L3.52804 23.7475C1.85774 27.9662 1 32.4627 1 37L14 37C14 49.7025 24.2975 60 37 60ZM14 37H37L15.6094 28.5309C14.5708 31.1519 14 34.0093 14 37ZM50.2525 3.52805C46.0338 1.85774 41.5373 1 37 1V14C24.2975 14 14 24.2975 14 37C14 49.7025 24.2975 60 37 60C49.7025 60 60 49.7025 60 37C60 27.2881 53.9806 18.9822 45.4691 15.6094L50.2525 3.52805ZM45.4691 15.6094C42.8481 14.5708 39.9907 14 37 14V37L45.4691 15.6094Z" fill="white"/>
<rect x="1" y="1" width="72" height="72" rx="36" fill="#F545A6"/>
<path fill-rule="evenodd" clip-rule="evenodd" d="M46.1368 58.1136C48.7246 56.9946 51.1487 55.3778 53.2635 53.263L62.4558 62.4554C59.2475 65.6638 55.4615 68.2367 51.2973 70.0387L46.1368 58.1136ZM46.1368 58.1136C37.7334 61.7472 27.6039 60.1303 20.7365 53.263C11.7545 44.281 11.7545 29.7182 20.7365 20.7361C29.7186 11.7541 44.2814 11.7541 53.2635 20.7361C62.2455 29.7182 62.2455 44.281 53.2635 53.263L37 36.9996L46.1368 58.1136Z" fill="white"/>
<path fill-rule="evenodd" clip-rule="evenodd" d="M20.7365 53.263C29.7186 62.2451 44.2814 62.2451 53.2635 53.263C62.2455 44.281 62.2455 29.7182 53.2635 20.7361C44.2814 11.7541 29.7186 11.7541 20.7365 20.7361C13.8692 27.6034 12.2524 37.733 15.886 46.1364L3.96083 51.2969C5.76283 55.4611 8.33578 59.247 11.5442 62.4554L20.7365 53.263ZM20.7365 53.263L37 36.9996L15.886 46.1364C17.005 48.7242 18.6218 51.1483 20.7365 53.263Z" fill="white"/>
<path fill-rule="evenodd" clip-rule="evenodd" d="M20.7365 53.263C29.7186 62.2451 44.2814 62.2451 53.2635 53.263C62.2455 44.281 62.2455 29.7182 53.2635 20.7361C46.3961 13.8688 36.2666 12.252 27.8632 15.8856L22.7027 3.96041C18.5385 5.7624 14.7525 8.33535 11.5442 11.5437L20.7365 20.7361C11.7545 29.7182 11.7545 44.281 20.7365 53.263ZM20.7365 20.7361L37 36.9996L27.8632 15.8856C25.2754 17.0045 22.8513 18.6214 20.7365 20.7361Z" fill="white"/>
<path fill-rule="evenodd" clip-rule="evenodd" d="M70.0392 22.7023C68.2372 18.5381 65.6642 14.7521 62.4558 11.5437L53.2635 20.7361C44.2814 11.7541 29.7186 11.7541 20.7365 20.7361C11.7545 29.7182 11.7545 44.281 20.7365 53.263C29.7186 62.2451 44.2814 62.2451 53.2635 53.263C60.1308 46.3957 61.7476 36.2662 58.114 27.8627L70.0392 22.7023ZM58.114 27.8627C56.995 25.275 55.3782 22.8509 53.2635 20.7361L37 36.9996L58.114 27.8627Z" fill="white"/>
<path fill-rule="evenodd" clip-rule="evenodd" d="M58.3906 45.4691C59.4292 42.8481 60 39.9907 60 37H73C73 41.5373 72.1423 46.0338 70.472 50.2525L58.3906 45.4691ZM58.3906 45.4691C55.0178 53.9806 46.7119 60 37 60C24.2975 60 14 49.7025 14 37C14 24.2975 24.2975 14 37 14C49.7025 14 60 24.2975 60 37H37L58.3906 45.4691Z" fill="white"/>
<path fill-rule="evenodd" clip-rule="evenodd" d="M37 60C49.7025 60 60 49.7025 60 37C60 24.2975 49.7025 14 37 14C24.2975 14 14 24.2975 14 37C14 46.7119 20.0194 55.0178 28.5309 58.3906L23.7475 70.472C27.9662 72.1423 32.4627 73 37 73L37 60ZM37 60V37L28.5309 58.3906C31.1519 59.4292 34.0093 60 37 60Z" fill="white"/>
<path fill-rule="evenodd" clip-rule="evenodd" d="M37 60C49.7025 60 60 49.7025 60 37C60 24.2975 49.7025 14 37 14C27.2881 14 18.9822 20.0194 15.6094 28.5309L3.52804 23.7475C1.85774 27.9662 1 32.4627 1 37L14 37C14 49.7025 24.2975 60 37 60ZM14 37H37L15.6094 28.5309C14.5708 31.1519 14 34.0093 14 37Z" fill="white"/>
<path fill-rule="evenodd" clip-rule="evenodd" d="M50.2525 3.52805C46.0338 1.85774 41.5373 1 37 1V14C24.2975 14 14 24.2975 14 37C14 49.7025 24.2975 60 37 60C49.7025 60 60 49.7025 60 37C60 27.2881 53.9806 18.9822 45.4691 15.6094L50.2525 3.52805ZM45.4691 15.6094C42.8481 14.5708 39.9907 14 37 14V37L45.4691 15.6094Z" fill="white"/>
<rect x="12" y="12" width="50" height="50" rx="25" fill="url(#paint0_radial_1286_21149)" stroke="#4D0034" stroke-width="2"/>
<g filter="url(#filter0_d_1286_21149)">
<path d="M25.9024 34.48C26.7424 34.48 27.5091 34.68 28.2024 35.08C28.8958 35.4667 29.4424 36.0267 29.8424 36.76C30.2424 37.48 30.4424 38.3133 30.4424 39.26C30.4424 40.2867 30.2158 41.18 29.7624 41.94C29.3224 42.6867 28.7158 43.26 27.9424 43.66C27.1691 44.0467 26.3158 44.24 25.3824 44.24C24.2758 44.24 23.3158 43.9867 22.5024 43.48C21.7024 42.9733 21.1358 42.2067 20.8024 41.18L23.1424 39.84C23.3158 40.44 23.5958 40.8933 23.9824 41.2C24.3691 41.5067 24.8224 41.66 25.3424 41.66C25.9958 41.66 26.4958 41.4467 26.8424 41.02C27.2024 40.58 27.3824 40.0267 27.3824 39.36C27.3824 38.6933 27.1958 38.14 26.8224 37.7C26.4624 37.2467 25.9424 37.02 25.2624 37.02C24.3824 37.02 23.6824 37.4533 23.1624 38.32L21.0824 37.3L22.0824 29.34H29.7624V31.82H24.5224L24.1224 34.84C24.6958 34.6 25.2891 34.48 25.9024 34.48ZM42.6741 36.68C42.6741 39.1467 42.2275 41.0267 41.3341 42.32C40.4408 43.6 39.1675 44.24 37.5141 44.24C35.8608 44.24 34.5808 43.6 33.6741 42.32C32.7808 41.0267 32.3341 39.1467 32.3341 36.68C32.3341 34.2 32.7808 32.3133 33.6741 31.02C34.5808 29.7267 35.8608 29.08 37.5141 29.08C39.1675 29.08 40.4408 29.7267 41.3341 31.02C42.2275 32.3133 42.6741 34.2 42.6741 36.68ZM35.4141 36.68C35.4141 38.3333 35.5808 39.5667 35.9141 40.38C36.2608 41.18 36.7941 41.58 37.5141 41.58C38.2341 41.58 38.7608 41.18 39.0941 40.38C39.4275 39.5667 39.5941 38.3333 39.5941 36.68C39.5941 35.0133 39.4275 33.7733 39.0941 32.96C38.7608 32.1467 38.2341 31.74 37.5141 31.74C36.7941 31.74 36.2608 32.1467 35.9141 32.96C35.5808 33.76 35.4141 35 35.4141 36.68ZM54.6859 36.68C54.6859 39.1467 54.2392 41.0267 53.3459 42.32C52.4525 43.6 51.1792 44.24 49.5259 44.24C47.8725 44.24 46.5925 43.6 45.6859 42.32C44.7925 41.0267 44.3459 39.1467 44.3459 36.68C44.3459 34.2 44.7925 32.3133 45.6859 31.02C46.5925 29.7267 47.8725 29.08 49.5259 29.08C51.1792 29.08 52.4525 29.7267 53.3459 31.02C54.2392 32.3133 54.6859 34.2 54.6859 36.68ZM47.4259 36.68C47.4259 38.3333 47.5925 39.5667 47.9259 40.38C48.2725 41.18 48.8059 41.58 49.5259 41.58C50.2459 41.58 50.7725 41.18 51.1059 40.38C51.4392 39.5667 51.6059 38.3333 51.6059 36.68C51.6059 35.0133 51.4392 33.7733 51.1059 32.96C50.7725 32.1467 50.2459 31.74 49.5259 31.74C48.8059 31.74 48.2725 32.1467 47.9259 32.96C47.5925 33.76 47.4259 35 47.4259 36.68Z" fill="white"/>
</g>
</g>
<defs>
<filter id="filter0_d_1286_21149" x="20.8024" y="29.0801" width="33.8834" height="16.1602" filterUnits="userSpaceOnUse" color-interpolation-filters="sRGB">
<feFlood flood-opacity="0" result="BackgroundImageFix"/>
<feColorMatrix in="SourceAlpha" type="matrix" values="0 0 0 0 0 0 0 0 0 0 0 0 0 0 0 0 0 0 127 0" result="hardAlpha"/>
<feOffset dy="1"/>
<feComposite in2="hardAlpha" operator="out"/>
<feColorMatrix type="matrix" values="0 0 0 0 0 0 0 0 0 0 0 0 0 0 0 0 0 0 1 0"/>
<feBlend mode="normal" in2="BackgroundImageFix" result="effect1_dropShadow_1286_21149"/>
<feBlend mode="normal" in="SourceGraphic" in2="effect1_dropShadow_1286_21149" result="shape"/>
</filter>
<radialGradient id="paint0_radial_1286_21149" cx="0" cy="0" r="1" gradientUnits="userSpaceOnUse" gradientTransform="translate(37 37) rotate(90) scale(24)">
<stop stop-color="#F545A6"/>
<stop offset="1" stop-color="#8F2861"/>
</radialGradient>
<clipPath id="clip0_1286_21149">
<rect width="74" height="74" fill="white"/>
</clipPath>
</defs>
</svg>
