<svg width="74" height="74" viewBox="0 0 74 74" fill="none" xmlns="http://www.w3.org/2000/svg">
<g clip-path="url(#clip0_1286_21263)">
<path fill-rule="evenodd" clip-rule="evenodd" d="M46.1368 58.1136C48.7246 56.9946 51.1487 55.3778 53.2635 53.263L62.4558 62.4554C59.2475 65.6638 55.4615 68.2367 51.2973 70.0387L46.1368 58.1136ZM46.1368 58.1136C37.7334 61.7472 27.6039 60.1303 20.7365 53.263C11.7545 44.281 11.7545 29.7182 20.7365 20.7361C29.7186 11.7541 44.2814 11.7541 53.2635 20.7361C62.2455 29.7182 62.2455 44.281 53.2635 53.263L37 36.9996L46.1368 58.1136ZM20.7365 53.263C29.7186 62.2451 44.2814 62.2451 53.2635 53.263C62.2455 44.281 62.2455 29.7182 53.2635 20.7361C44.2814 11.7541 29.7186 11.7541 20.7365 20.7361C13.8692 27.6034 12.2524 37.733 15.886 46.1364L3.96083 51.2969C5.76283 55.4611 8.33578 59.247 11.5442 62.4554L20.7365 53.263ZM20.7365 53.263L37 36.9996L15.886 46.1364C17.005 48.7242 18.6218 51.1483 20.7365 53.263ZM20.7365 53.263C29.7186 62.2451 44.2814 62.2451 53.2635 53.263C62.2455 44.281 62.2455 29.7182 53.2635 20.7361C46.3961 13.8688 36.2666 12.252 27.8632 15.8856L22.7027 3.96041C18.5385 5.7624 14.7525 8.33535 11.5442 11.5437L20.7365 20.7361C11.7545 29.7182 11.7545 44.281 20.7365 53.263ZM20.7365 20.7361L37 36.9996L27.8632 15.8856C25.2754 17.0045 22.8513 18.6214 20.7365 20.7361ZM70.0392 22.7023C68.2372 18.5381 65.6642 14.7521 62.4558 11.5437L53.2635 20.7361C44.2814 11.7541 29.7186 11.7541 20.7365 20.7361C11.7545 29.7182 11.7545 44.281 20.7365 53.263C29.7186 62.2451 44.2814 62.2451 53.2635 53.263C60.1308 46.3957 61.7476 36.2662 58.114 27.8627L70.0392 22.7023ZM58.114 27.8627C56.995 25.275 55.3782 22.8509 53.2635 20.7361L37 36.9996L58.114 27.8627ZM58.3906 45.4691C59.4292 42.8481 60 39.9907 60 37H73C73 41.5373 72.1423 46.0338 70.472 50.2525L58.3906 45.4691ZM58.3906 45.4691C55.0178 53.9806 46.7119 60 37 60C24.2975 60 14 49.7025 14 37C14 24.2975 24.2975 14 37 14C49.7025 14 60 24.2975 60 37H37L58.3906 45.4691ZM37 60C49.7025 60 60 49.7025 60 37C60 24.2975 49.7025 14 37 14C24.2975 14 14 24.2975 14 37C14 46.7119 20.0194 55.0178 28.5309 58.3906L23.7475 70.472C27.9662 72.1423 32.4627 73 37 73V60ZM37 60V37L28.5309 58.3906C31.1519 59.4292 34.0093 60 37 60ZM37 60C49.7025 60 60 49.7025 60 37C60 24.2975 49.7025 14 37 14C27.2881 14 18.9822 20.0194 15.6094 28.5309L3.52804 23.7475C1.85774 27.9662 1 32.4627 1 37L14 37C14 49.7025 24.2975 60 37 60ZM14 37H37L15.6094 28.5309C14.5708 31.1519 14 34.0093 14 37ZM50.2525 3.52805C46.0338 1.85774 41.5373 1 37 1V14C24.2975 14 14 24.2975 14 37C14 49.7025 24.2975 60 37 60C49.7025 60 60 49.7025 60 37C60 27.2881 53.9806 18.9822 45.4691 15.6094L50.2525 3.52805ZM45.4691 15.6094C42.8481 14.5708 39.9907 14 37 14V37L45.4691 15.6094Z" fill="white"/>
<rect x="1" y="1" width="72" height="72" rx="36" fill="#1D4DD2"/>
<path fill-rule="evenodd" clip-rule="evenodd" d="M46.1368 58.1136C48.7246 56.9946 51.1487 55.3778 53.2635 53.263L62.4558 62.4554C59.2475 65.6638 55.4615 68.2367 51.2973 70.0387L46.1368 58.1136ZM46.1368 58.1136C37.7334 61.7472 27.6039 60.1303 20.7365 53.263C11.7545 44.281 11.7545 29.7182 20.7365 20.7361C29.7186 11.7541 44.2814 11.7541 53.2635 20.7361C62.2455 29.7182 62.2455 44.281 53.2635 53.263L37 36.9996L46.1368 58.1136Z" fill="white"/>
<path fill-rule="evenodd" clip-rule="evenodd" d="M20.7365 53.263C29.7186 62.2451 44.2814 62.2451 53.2635 53.263C62.2455 44.281 62.2455 29.7182 53.2635 20.7361C44.2814 11.7541 29.7186 11.7541 20.7365 20.7361C13.8692 27.6034 12.2524 37.733 15.886 46.1364L3.96083 51.2969C5.76283 55.4611 8.33578 59.247 11.5442 62.4554L20.7365 53.263ZM20.7365 53.263L37 36.9996L15.886 46.1364C17.005 48.7242 18.6218 51.1483 20.7365 53.263Z" fill="white"/>
<path fill-rule="evenodd" clip-rule="evenodd" d="M20.7365 53.263C29.7186 62.2451 44.2814 62.2451 53.2635 53.263C62.2455 44.281 62.2455 29.7182 53.2635 20.7361C46.3961 13.8688 36.2666 12.252 27.8632 15.8856L22.7027 3.96041C18.5385 5.7624 14.7525 8.33535 11.5442 11.5437L20.7365 20.7361C11.7545 29.7182 11.7545 44.281 20.7365 53.263ZM20.7365 20.7361L37 36.9996L27.8632 15.8856C25.2754 17.0045 22.8513 18.6214 20.7365 20.7361Z" fill="white"/>
<path fill-rule="evenodd" clip-rule="evenodd" d="M70.0392 22.7023C68.2372 18.5381 65.6642 14.7521 62.4558 11.5437L53.2635 20.7361C44.2814 11.7541 29.7186 11.7541 20.7365 20.7361C11.7545 29.7182 11.7545 44.281 20.7365 53.263C29.7186 62.2451 44.2814 62.2451 53.2635 53.263C60.1308 46.3957 61.7476 36.2662 58.114 27.8627L70.0392 22.7023ZM58.114 27.8627C56.995 25.275 55.3782 22.8509 53.2635 20.7361L37 36.9996L58.114 27.8627Z" fill="white"/>
<path fill-rule="evenodd" clip-rule="evenodd" d="M58.3906 45.4691C59.4292 42.8481 60 39.9907 60 37H73C73 41.5373 72.1423 46.0338 70.472 50.2525L58.3906 45.4691ZM58.3906 45.4691C55.0178 53.9806 46.7119 60 37 60C24.2975 60 14 49.7025 14 37C14 24.2975 24.2975 14 37 14C49.7025 14 60 24.2975 60 37H37L58.3906 45.4691Z" fill="white"/>
<path fill-rule="evenodd" clip-rule="evenodd" d="M37 60C49.7025 60 60 49.7025 60 37C60 24.2975 49.7025 14 37 14C24.2975 14 14 24.2975 14 37C14 46.7119 20.0194 55.0178 28.5309 58.3906L23.7475 70.472C27.9662 72.1423 32.4627 73 37 73L37 60ZM37 60V37L28.5309 58.3906C31.1519 59.4292 34.0093 60 37 60Z" fill="white"/>
<path fill-rule="evenodd" clip-rule="evenodd" d="M37 60C49.7025 60 60 49.7025 60 37C60 24.2975 49.7025 14 37 14C27.2881 14 18.9822 20.0194 15.6094 28.5309L3.52804 23.7475C1.85774 27.9662 1 32.4627 1 37L14 37C14 49.7025 24.2975 60 37 60ZM14 37H37L15.6094 28.5309C14.5708 31.1519 14 34.0093 14 37Z" fill="white"/>
<path fill-rule="evenodd" clip-rule="evenodd" d="M50.2525 3.52805C46.0338 1.85774 41.5373 1 37 1V14C24.2975 14 14 24.2975 14 37C14 49.7025 24.2975 60 37 60C49.7025 60 60 49.7025 60 37C60 27.2881 53.9806 18.9822 45.4691 15.6094L50.2525 3.52805ZM45.4691 15.6094C42.8481 14.5708 39.9907 14 37 14V37L45.4691 15.6094Z" fill="white"/>
<rect x="12" y="12" width="50" height="50" rx="25" fill="url(#paint0_radial_1286_21263)" stroke="#FFB357" stroke-width="2"/>
<g filter="url(#filter0_d_1286_21263)">
<path d="M24.4864 34.48C25.3264 34.48 26.0931 34.68 26.7864 35.08C27.4797 35.4667 28.0264 36.0267 28.4264 36.76C28.8264 37.48 29.0264 38.3133 29.0264 39.26C29.0264 40.2867 28.7997 41.18 28.3464 41.94C27.9064 42.6867 27.2997 43.26 26.5264 43.66C25.7531 44.0467 24.8997 44.24 23.9664 44.24C22.8597 44.24 21.8997 43.9867 21.0864 43.48C20.2864 42.9733 19.7197 42.2067 19.3864 41.18L21.7264 39.84C21.8997 40.44 22.1797 40.8933 22.5664 41.2C22.9531 41.5067 23.4064 41.66 23.9264 41.66C24.5797 41.66 25.0797 41.4467 25.4264 41.02C25.7864 40.58 25.9664 40.0267 25.9664 39.36C25.9664 38.6933 25.7797 38.14 25.4064 37.7C25.0464 37.2467 24.5264 37.02 23.8464 37.02C22.9664 37.02 22.2664 37.4533 21.7464 38.32L19.6664 37.3L20.6664 29.34H28.3464V31.82H23.1064L22.7064 34.84C23.2797 34.6 23.8731 34.48 24.4864 34.48ZM41.2581 36.68C41.2581 39.1467 40.8115 41.0267 39.9181 42.32C39.0248 43.6 37.7515 44.24 36.0981 44.24C34.4448 44.24 33.1648 43.6 32.2581 42.32C31.3648 41.0267 30.9181 39.1467 30.9181 36.68C30.9181 34.2 31.3648 32.3133 32.2581 31.02C33.1648 29.7267 34.4448 29.08 36.0981 29.08C37.7515 29.08 39.0248 29.7267 39.9181 31.02C40.8115 32.3133 41.2581 34.2 41.2581 36.68ZM33.9981 36.68C33.9981 38.3333 34.1648 39.5667 34.4981 40.38C34.8448 41.18 35.3781 41.58 36.0981 41.58C36.8181 41.58 37.3448 41.18 37.6781 40.38C38.0115 39.5667 38.1781 38.3333 38.1781 36.68C38.1781 35.0133 38.0115 33.7733 37.6781 32.96C37.3448 32.1467 36.8181 31.74 36.0981 31.74C35.3781 31.74 34.8448 32.1467 34.4981 32.96C34.1648 33.76 33.9981 35 33.9981 36.68ZM50.6098 35.34L56.8298 44H53.0898L48.5298 37.56L46.5298 39.7V44H43.6298V29.36H46.5298V36.18L52.6098 29.36H56.2298L50.6098 35.34Z" fill="white"/>
</g>
</g>
<defs>
<filter id="filter0_d_1286_21263" x="19.3864" y="29.0801" width="37.4434" height="16.1602" filterUnits="userSpaceOnUse" color-interpolation-filters="sRGB">
<feFlood flood-opacity="0" result="BackgroundImageFix"/>
<feColorMatrix in="SourceAlpha" type="matrix" values="0 0 0 0 0 0 0 0 0 0 0 0 0 0 0 0 0 0 127 0" result="hardAlpha"/>
<feOffset dy="1"/>
<feComposite in2="hardAlpha" operator="out"/>
<feColorMatrix type="matrix" values="0 0 0 0 0 0 0 0 0 0 0 0 0 0 0 0 0 0 1 0"/>
<feBlend mode="normal" in2="BackgroundImageFix" result="effect1_dropShadow_1286_21263"/>
<feBlend mode="normal" in="SourceGraphic" in2="effect1_dropShadow_1286_21263" result="shape"/>
</filter>
<radialGradient id="paint0_radial_1286_21263" cx="0" cy="0" r="1" gradientUnits="userSpaceOnUse" gradientTransform="translate(37 37) rotate(90) scale(24)">
<stop stop-color="#717180"/>
<stop offset="1" stop-color="#17171A"/>
</radialGradient>
<clipPath id="clip0_1286_21263">
<rect width="74" height="74" fill="white"/>
</clipPath>
</defs>
</svg>
